. 
 
http://www.torrenting.com          :     Once & For all ;)


               www . Torrenting . Com 

(((((((((((((= Enjoy No RAR releases =))))))))))))))))))))


...................................NFO:....................................

.[img]http://img11.imageshack.us/img11/7610/courageoius.jpg[/img]


[color=blue][size=5][b]Courageous.2011.BDRip.XVID.AC3.HQ.Hive-CM8[/b][/size][/color]


[b]Thx Hive

CM8 Doing It Right The First Time :D


Source: Bluray

Video: 720x304 @bitrate 1700 2pass
Audio: English DTS to AC3 5.1 @384
Sample: Yes, included
Subs: Yes, English in srt /subs[/b]
 
http://www.imdb.com/title/tt1630036/


General
Complete name                  : Courageous.2011.BDRip.XVID.AC3.HQ.Hive-CM8.avi
Format                         : AVI
Format/Info                    : Audio Video Interleave
File size                      : 1.89 GiB
Duration                       : 2h 9mn
Overall bit rate               : 2 094 Kbps
Writing application            : Nandub v1.0rc2
Writing library                : Nandub build 1853/release

Video
ID                             : 0
Format                         : MPEG-4 Visual
Format profile                 : Advanced Simple@L5
Format settings, BVOP          : 1
Format settings, QPel          : Yes
Format settings, GMC           : No warppoints
Format settings, Matrix        : Default (H.263)
Muxing mode                    : Packed bitstream
Codec ID                       : XVID
Codec ID/Hint                  : XviD
Duration                       : 2h 9mn
Bit rate                       : 1 701 Kbps
Width                          : 720 pixels
Height                         : 304 pixels
Display aspect ratio           : 2.35:1
Frame rate                     : 23.976 fps
Color space                    : YUV
Chroma subsampling             : 4:2:0
Bit depth                      : 8 bits
Scan type                      : Progressive
Compression mode               : Lossy
Bits/(Pixel*Frame)             : 0.324
Stream size                    : 1.54 GiB (81%)
Writing library                : XviD 1.2.1 (UTC 2008-12-04)

Audio
ID                             : 1
Format                         : AC-3
Format/Info                    : Audio Coding 3
Mode extension                 : CM (complete main)
Codec ID                       : 2000
Duration                       : 2h 9mn
Bit rate mode                  : Constant
Bit rate                       : 384 Kbps
Channel(s)                     : 6 channels
Channel positions              : Front: L C R, Side: L R, LFE
Sampling rate                  : 48.0 KHz
Bit depth                      : 16 bits
Compression mode               : Lossy
Stream size                    : 355 MiB (18%)
Alignment                      : Split accross interleaves
Interleave, duration           : 42 ms (1.00 video frame)
Interleave, preload duration   : 500 ms


Plot:
When a tragedy strikes close to home, four police officers struggle with
their faith and their roles as husbands and fathers; together they make
a decision that will change all of their lives.


Cast:
Alex Kendrick    ...     Adam Mitchell
Ken Bevel        ...     Nathan Hayes
Ben Davies       ...     David Thomson
Kevin Downes     ...     Shane Fuller


[img]http://img32.imageshack.us/img32/2756/15294212.png[/img]
[img]http://img809.imageshack.us/img809/2986/coccoocococo.png[/img]
[img]http://img26.imageshack.us/img26/3452/coccoococococo.png[/img]
[img]http://img848.imageshack.us/img848/9292/cococo.png[/img]
[img]http://img846.imageshack.us/img846/5752/cococococo.png[/img]
[img]http://img713.imageshack.us/img713/171/coccoocococococo.png[/img]
[img]http://img707.imageshack.us/img707/5130/coccoococococococo.png[/img]
[img]http://img846.imageshack.us/img846/7227/cocoso.png[/img]
[img]http://img252.imageshack.us/img252/7/cococcoo.png[/img]
[img]http://img545.imageshack.us/img545/8853/cococcooco.png[/img]



Greetz

ViSiON,SPK,SANTi,3LT0N,FUSiON,YanKeeS,MAGNET,Feel-Free,THC,LKRG,BHRG
FANTASIA-PLAY,FANTASIA-M,FLAWL3SS,WBZ,ZMG,NOVA,D2U,Vik,Rapeseed
T0XiC,SAFC,goldadvance,MEMORY100,KaN1vE,Unevano,Pinnz,Wayne
Mr Hive,and most P2P groups
Great Work Guys :D

LOOKING FOR ANYTHING YOU WANT TO LOOK AND SOUND BETTER

CM8@hushmail.com